# xmcd
#
# Track frame offsets:
#	150
#	19015
#	47257
#	67367
#	87622
#	107592
#
# Disc length: 1710 seconds
#
# Revision: 0
# Processed by: cddbd v1.5.1PL0 Copyright (c) Steve Scherf et al.
# Submitted via: EasyCDDAExtractor 8.0.2.1
#
DISCID=4a06ac06
DTITLE=The Isley Brothers - Floatin' On Your Love [CD Single)
DYEAR=1996
DGENRE=R&B
TTITLE0=Floatin' On Your Love (Album Version)
TTITLE1=Floatin' On Your Love (Bone Idol Mix)
TTITLE2=Floatin' On Your Love (Soul In 82 Mix)
TTITLE3=Floatin' On Your Love (Soul To Statten Isle Mix)
TTITLE4=Floatin' On Your Love (Float On Bad Boy Remix)
TTITLE5=Floatin' On Your Love (Float N' Slow Bad Boy Remix)
EXTD=
EXTT0=
EXTT1=
EXTT2=
EXTT3=
EXTT4=
EXTT5=
PLAYORDER=
